<svg width="1820" height="980" viewBox="0 0 1920 1080" fill="none" xmlns="http://www.w3.org/2000/svg">
<rect width="1920" height="1080" fill="white"/>
<path d="M641.875 926.667V889.833H626.25V881.333H666.875V889.833H651.25V926.667H641.875ZM670 926.667V904H660.625V895.5H688.75V904H679.375V926.667H670Z" fill="#E8E7EA"/>
<path d="M226 552H240.5L226 581H240.5M182.5 581V559.25C182.5 557.327 183.264 555.483 184.623 554.123C185.983 552.764 187.827 552 189.75 552C191.673 552 193.517 552.764 194.877 554.123C196.236 555.483 197 557.327 197 559.25V581M182.5 570.125H197M207.875 566.5H215.125" stroke="#E8E7EA" stroke-width="4" stroke-linecap="round" stroke-linejoin="round"/>
<path d="M1524 104H1538L1524 132H1538M1566 132V111C1566 109.143 1566.74 107.363 1568.05 106.05C1569.36 104.737 1571.14 104 1573 104C1574.86 104 1576.64 104.737 1577.95 106.05C1579.26 107.363 1580 109.143 1580 111V132M1566 121.5H1580M1548.5 118H1555.5" stroke="#E8E7EA" stroke-width="4" stroke-linecap="round" stroke-linejoin="round"/>
<g clip-path="url(#clip0_142_48)">
<path d="M358.533 829.5H362.467M346.733 829.5H350.667M370.333 829.5H374.267M388.033 857.033H360.5C355.054 857.033 349.731 855.419 345.203 852.393C340.675 849.368 337.146 845.068 335.062 840.037C332.978 835.005 332.433 829.469 333.496 824.129C334.558 818.788 337.18 813.882 341.031 810.031C344.881 806.18 349.787 803.558 355.128 802.496C360.469 801.433 366.005 801.979 371.036 804.063C376.068 806.146 380.368 809.675 383.393 814.203C386.418 818.731 388.033 824.054 388.033 829.5V857.033Z" stroke="#E8E7EA" stroke-width="4"/>
</g>
<g clip-path="url(#clip1_142_48)">
<path d="M1609.53 390.5H1613.47M1597.73 390.5H1601.67M1621.33 390.5H1625.27M1639.03 418.033H1611.5C1606.05 418.033 1600.73 416.419 1596.2 413.393C1591.68 410.368 1588.15 406.068 1586.06 401.037C1583.98 396.005 1583.43 390.469 1584.5 385.129C1585.56 379.788 1588.18 374.882 1592.03 371.031C1595.88 367.18 1600.79 364.558 1606.13 363.496C1611.47 362.433 1617.01 362.979 1622.04 365.063C1627.07 367.146 1631.37 370.675 1634.39 375.203C1637.42 379.731 1639.03 385.054 1639.03 390.5V418.033Z" stroke="#E8E7EA" stroke-width="4"/>
</g>
<path d="M405.8 128C407.4 129.6 409.467 130.383 412 130.348C414.533 130.316 416.4 129.4 417.6 127.6L440 94L406.4 116.4C404.6 117.6 403.651 119.433 403.552 121.9C403.451 124.367 404.2 126.4 405.8 128ZM412 82C415.933 82 419.717 82.5493 423.352 83.648C426.984 84.7493 430.4 86.4 433.6 88.6L426 93.4C423.8 92.2667 421.517 91.4173 419.152 90.852C416.784 90.284 414.4 90 412 90C403.133 90 395.584 93.116 389.352 99.348C383.117 105.583 380 113.133 380 122C380 124.8 380.383 127.567 381.148 130.3C381.916 133.033 383 135.6 384.4 138H439.6C441.133 135.467 442.251 132.833 442.952 130.1C443.651 127.367 444 124.533 444 121.6C444 119.2 443.717 116.867 443.152 114.6C442.584 112.333 441.733 110.133 440.6 108L445.4 100.4C447.4 103.533 448.984 106.867 450.152 110.4C451.317 113.933 451.933 117.6 452 121.4C452.067 125.2 451.633 128.833 450.7 132.3C449.767 135.767 448.4 139.067 446.6 142.2C445.867 143.4 444.867 144.333 443.6 145C442.333 145.667 441 146 439.6 146H384.4C383 146 381.667 145.667 380.4 145C379.133 144.333 378.133 143.4 377.4 142.2C375.667 139.2 374.333 136.017 373.4 132.652C372.467 129.284 372 125.733 372 122C372 116.467 373.051 111.283 375.152 106.448C377.251 101.616 380.117 97.3827 383.752 93.748C387.384 90.116 391.633 87.2493 396.5 85.148C401.367 83.0493 406.533 82 412 82Z" fill="#E8E7EA"/>
<path d="M1781.8 676C1783.4 677.6 1785.47 678.383 1788 678.348C1790.53 678.316 1792.4 677.4 1793.6 675.6L1816 642L1782.4 664.4C1780.6 665.6 1779.65 667.433 1779.55 669.9C1779.45 672.367 1780.2 674.4 1781.8 676ZM1788 630C1791.93 630 1795.72 630.549 1799.35 631.648C1802.98 632.749 1806.4 634.4 1809.6 636.6L1802 641.4C1799.8 640.267 1797.52 639.417 1795.15 638.852C1792.78 638.284 1790.4 638 1788 638C1779.13 638 1771.58 641.116 1765.35 647.348C1759.12 653.583 1756 661.133 1756 670C1756 672.8 1756.38 675.567 1757.15 678.3C1757.92 681.033 1759 683.6 1760.4 686H1815.6C1817.13 683.467 1818.25 680.833 1818.95 678.1C1819.65 675.367 1820 672.533 1820 669.6C1820 667.2 1819.72 664.867 1819.15 662.6C1818.58 660.333 1817.73 658.133 1816.6 656L1821.4 648.4C1823.4 651.533 1824.98 654.867 1826.15 658.4C1827.32 661.933 1827.93 665.6 1828 669.4C1828.07 673.2 1827.63 676.833 1826.7 680.3C1825.77 683.767 1824.4 687.067 1822.6 690.2C1821.87 691.4 1820.87 692.333 1819.6 693C1818.33 693.667 1817 694 1815.6 694H1760.4C1759 694 1757.67 693.667 1756.4 693C1755.13 692.333 1754.13 691.4 1753.4 690.2C1751.67 687.2 1750.33 684.017 1749.4 680.652C1748.47 677.284 1748 673.733 1748 670C1748 664.467 1749.05 659.283 1751.15 654.448C1753.25 649.616 1756.12 645.383 1759.75 641.748C1763.38 638.116 1767.63 635.249 1772.5 633.148C1777.37 631.049 1782.53 630 1788 630Z" fill="#E8E7EA"/>
<path d="M210.917 195.333V212.083L224.038 220.179L226.271 216.829L215.104 210.129V195.333H210.917Z" fill="#E8E7EA"/>
<path d="M233.027 206.5C233.447 209.275 233.262 212.108 232.483 214.804C231.704 217.5 230.349 219.995 228.513 222.118C226.677 224.24 224.403 225.94 221.847 227.099C219.291 228.259 216.515 228.85 213.708 228.833C202.821 228.833 194.167 220.179 194.167 209.292C194.167 198.404 202.821 189.75 213.708 189.75C215.662 189.75 217.533 190.029 219.292 190.56V184.809C217.505 184.39 215.635 184.167 213.708 184.167C199.75 184.167 188.583 195.333 188.583 209.292C188.583 223.25 199.75 234.417 213.708 234.417C217.247 234.431 220.749 233.695 223.982 232.257C227.216 230.818 230.107 228.71 232.466 226.072C234.825 223.434 236.597 220.325 237.666 216.951C238.734 213.577 239.075 210.015 238.666 206.5H233.027Z" fill="#E8E7EA"/>
<path d="M238.833 186.958V178.583H233.25V186.958H224.875V192.542H233.25V200.917H238.833V192.542H247.208V186.958H238.833Z" fill="#E8E7EA"/>
<g clip-path="url(#clip2_142_48)">
<path d="M1590.32 893.417C1593.17 896.267 1598.54 895.493 1602.33 891.697C1606.12 887.902 1606.89 882.52 1604.05 879.675C1601.2 876.825 1595.83 877.595 1592.04 881.39C1588.25 885.19 1587.48 890.572 1590.32 893.417Z" fill="#E8E7EA"/>
<path d="M1619.1 879.732C1617.38 887.019 1612.77 896.956 1601.81 909.268L1600.67 920.706C1600.37 923.446 1599.14 926.002 1597.2 927.954L1585.88 939.288C1585.52 939.651 1585.06 939.891 1584.55 939.974C1584.05 940.057 1583.53 939.979 1583.07 939.75C1582.62 939.522 1582.24 939.154 1582.01 938.701C1581.77 938.248 1581.69 937.731 1581.76 937.226L1583.05 928.206C1583.24 926.876 1582.98 925.389 1582.42 923.665C1582.07 922.61 1581.67 921.569 1581.24 920.544L1580.85 919.585C1576.98 918.649 1573.36 916.44 1570.44 913.519C1567.53 910.598 1565.32 906.969 1564.39 903.093L1563.42 902.698C1562.4 902.268 1561.36 901.875 1560.31 901.52C1558.59 900.955 1557.11 900.703 1555.78 900.893L1546.77 902.176C1546.26 902.25 1545.75 902.163 1545.3 901.927C1544.84 901.691 1544.48 901.318 1544.25 900.861C1544.02 900.405 1543.94 899.888 1544.03 899.384C1544.11 898.881 1544.35 898.417 1544.71 898.058L1556.03 886.724C1557.97 884.777 1560.53 883.542 1563.27 883.238H1563.29L1574.69 882.107C1586.77 871.363 1596.66 866.765 1603.96 864.988C1608.19 863.957 1611.51 863.886 1613.84 864.095C1615 864.204 1615.91 864.38 1616.55 864.537C1616.87 864.618 1617.12 864.694 1617.31 864.751C1618.18 865.036 1618.63 865.368 1618.97 866.152L1619.11 866.499C1619.48 867.61 1619.73 868.758 1619.86 869.923C1620.12 872.227 1620.1 875.519 1619.1 879.732ZM1596.17 915.238L1596.36 915.048L1595.85 920.183C1595.67 921.823 1594.93 923.352 1593.76 924.52L1587.6 930.695L1587.85 928.89C1588.19 926.486 1587.69 924.173 1587.04 922.154C1586.8 921.435 1586.54 920.722 1586.26 920.017C1589.76 919.708 1593.2 918.212 1596.17 915.238ZM1568.72 887.75C1565.76 890.724 1564.26 894.167 1563.95 897.678C1563.25 897.398 1562.54 897.138 1561.82 896.899C1559.8 896.243 1557.49 895.74 1555.09 896.082L1553.29 896.338L1559.46 890.163C1560.63 888.995 1562.15 888.258 1563.78 888.073L1568.91 887.565L1568.72 887.75ZM1613.4 868.935C1611.6 868.774 1608.81 868.807 1605.11 869.71C1597.71 871.515 1586.5 876.816 1572.16 891.184C1569.21 894.129 1568.36 897.549 1568.89 900.927C1569.4 904.138 1571.19 907.396 1573.87 910.085C1576.55 912.768 1579.81 914.554 1583.01 915.067C1586.38 915.599 1589.8 914.749 1592.74 911.799C1607.37 897.155 1612.65 885.94 1614.38 878.611C1615.25 874.949 1615.24 872.222 1615.04 870.474C1614.99 870.023 1614.92 869.574 1614.82 869.13C1614.35 869.042 1613.88 868.977 1613.4 868.935H1613.4Z" fill="#E8E7EA"/>
<path d="M1577.29 921.66C1574.13 919.956 1571.25 917.791 1568.72 915.238C1566.02 912.561 1563.76 909.472 1562.02 906.085C1556.79 910.797 1552.69 930.092 1553.29 930.69C1553.88 931.289 1571.98 926.434 1577.29 921.656V921.66Z" fill="#E8E7EA"/>
</g>
<g clip-path="url(#clip3_142_48)">
<path d="M1794.32 129.417C1797.17 132.267 1802.54 131.493 1806.33 127.697C1810.12 123.902 1810.89 118.52 1808.05 115.675C1805.2 112.825 1799.83 113.595 1796.04 117.39C1792.25 121.19 1791.48 126.572 1794.32 129.417Z" fill="#E8E7EA"/>
<path d="M1823.1 115.732C1821.38 123.019 1816.77 132.956 1805.81 145.268L1804.67 156.706C1804.37 159.446 1803.14 162.002 1801.2 163.954L1789.88 175.288C1789.52 175.651 1789.06 175.891 1788.55 175.974C1788.05 176.057 1787.53 175.979 1787.07 175.75C1786.62 175.522 1786.24 175.154 1786.01 174.701C1785.77 174.248 1785.69 173.731 1785.76 173.226L1787.05 164.206C1787.24 162.876 1786.98 161.389 1786.42 159.665C1786.07 158.61 1785.67 157.569 1785.24 156.544L1784.85 155.585C1780.98 154.649 1777.36 152.44 1774.44 149.519C1771.53 146.598 1769.32 142.969 1768.39 139.093L1767.42 138.698C1766.4 138.268 1765.36 137.875 1764.31 137.52C1762.59 136.955 1761.11 136.703 1759.78 136.893L1750.77 138.176C1750.26 138.25 1749.75 138.163 1749.3 137.927C1748.84 137.691 1748.48 137.318 1748.25 136.861C1748.02 136.405 1747.94 135.888 1748.03 135.384C1748.11 134.881 1748.35 134.417 1748.71 134.058L1760.03 122.724C1761.97 120.777 1764.53 119.542 1767.27 119.238H1767.29L1778.69 118.107C1790.77 107.363 1800.66 102.765 1807.96 100.988C1812.19 99.9573 1815.51 99.886 1817.84 100.095C1819 100.204 1819.91 100.38 1820.55 100.537C1820.87 100.618 1821.12 100.694 1821.31 100.751C1822.18 101.036 1822.63 101.368 1822.97 102.152L1823.11 102.499C1823.48 103.61 1823.73 104.758 1823.86 105.923C1824.12 108.227 1824.1 111.519 1823.1 115.732ZM1800.17 151.238L1800.36 151.048L1799.85 156.183C1799.67 157.823 1798.93 159.352 1797.76 160.52L1791.6 166.695L1791.85 164.89C1792.19 162.486 1791.69 160.173 1791.04 158.154C1790.8 157.435 1790.54 156.722 1790.26 156.017C1793.76 155.708 1797.2 154.212 1800.17 151.238ZM1772.72 123.75C1769.76 126.724 1768.26 130.167 1767.95 133.678C1767.25 133.398 1766.54 133.138 1765.82 132.899C1763.8 132.243 1761.49 131.74 1759.09 132.082L1757.29 132.338L1763.46 126.163C1764.63 124.995 1766.15 124.258 1767.78 124.073L1772.91 123.565L1772.72 123.75ZM1817.4 104.935C1815.6 104.774 1812.81 104.807 1809.11 105.71C1801.71 107.515 1790.5 112.816 1776.16 127.184C1773.21 130.129 1772.36 133.549 1772.89 136.927C1773.4 140.138 1775.19 143.396 1777.87 146.085C1780.55 148.768 1783.81 150.554 1787.01 151.067C1790.38 151.599 1793.8 150.749 1796.74 147.799C1811.37 133.155 1816.65 121.94 1818.38 114.611C1819.25 110.949 1819.24 108.222 1819.04 106.474C1818.99 106.023 1818.92 105.574 1818.82 105.13C1818.35 105.042 1817.88 104.977 1817.4 104.935H1817.4Z" fill="#E8E7EA"/>
<path d="M1781.29 157.66C1778.13 155.956 1775.25 153.791 1772.72 151.238C1770.02 148.561 1767.76 145.472 1766.02 142.085C1760.79 146.797 1756.69 166.092 1757.29 166.69C1757.88 167.289 1775.98 162.434 1781.29 157.656V157.66Z" fill="#E8E7EA"/>
</g>
<defs>
<clipPath id="clip0_142_48">
<rect width="59" height="59" fill="white" transform="translate(331 800)"/>
</clipPath>
<clipPath id="clip1_142_48">
<rect width="59" height="59" fill="white" transform="translate(1582 361)"/>
</clipPath>
<clipPath id="clip2_142_48">
<rect width="76" height="76" fill="white" transform="translate(1544 864)"/>
</clipPath>
<clipPath id="clip3_142_48">
<rect width="76" height="76" fill="white" transform="translate(1748 100)"/>
</clipPath>
</defs>
</svg>
