<svg width="50" height="50" viewBox="0 0 34 34" fill="none" xmlns="http://www.w3.org/2000/svg">
<g clip-path="url(#clip0_169_17)">
<path d="M28.3555 0H5.64453C2.52714 0 0 2.58779 0 5.78V28.1656C0 31.3578 2.52714 33.9456 5.64453 33.9456H28.3555C31.4729 33.9456 34 31.3578 34 28.1656V5.78C34 2.58779 31.4729 0 28.3555 0Z" fill="#330000"/>
<path d="M16.476 20.3715H11.2073L10.1352 23.7815C10.1207 23.8437 10.0853 23.8987 10.0354 23.9371C9.9854 23.9755 9.92392 23.9948 9.86152 23.9917H7.19292C7.04085 23.9917 6.98759 23.906 7.03328 23.7347L11.595 10.2818C11.6405 10.1418 11.6862 9.98223 11.7318 9.80312C11.7916 9.49141 11.8221 9.1748 11.823 8.85724C11.8199 8.83503 11.8219 8.81238 11.8288 8.79109C11.8358 8.7698 11.8474 8.75045 11.8629 8.73457C11.8784 8.7187 11.8973 8.70674 11.9181 8.69963C11.9389 8.69252 11.961 8.69047 11.9827 8.69363H15.6092C15.7155 8.69363 15.7763 8.73266 15.7917 8.81059L20.9692 23.7581C21.0148 23.9139 20.9692 23.9919 20.8324 23.9917H17.8672C17.8163 23.9975 17.765 23.9841 17.7231 23.954C17.6811 23.9239 17.6513 23.8792 17.6392 23.8283L16.476 20.3715ZM12.0284 17.4288H15.6321L15.5807 17.2551L15.4982 16.9801L15.4394 16.787L15.3455 16.4829L15.1459 15.8427L14.9703 15.2752L14.5143 13.7969C14.4009 13.4294 14.2919 13.0605 14.1876 12.6901L14.1042 12.3896L14.0067 12.0342L13.858 11.4834L13.8301 11.3796H13.8074C13.6933 11.9402 13.5543 12.4952 13.3909 13.0429L13.0525 14.1576L12.8663 14.7734L12.6783 15.3968C12.6443 15.5094 12.6106 15.6208 12.5767 15.7308L12.4758 16.0569L12.3754 16.3755L12.2755 16.6861L12.1762 16.9889C12.1432 17.0886 12.1103 17.187 12.0775 17.2841L12.0284 17.4288ZM24.048 11.1694C23.8154 11.1789 23.5834 11.1381 23.3673 11.0496C23.1511 10.961 22.9556 10.8268 22.7936 10.6556C22.632 10.4769 22.5065 10.2673 22.4243 10.0389C22.3421 9.8104 22.3048 9.56755 22.3146 9.32426C22.3063 9.08342 22.3477 8.8435 22.4361 8.62017C22.5246 8.39684 22.658 8.19512 22.8277 8.02818C23.1551 7.70636 23.5911 7.52626 24.045 7.52539L24.0936 7.52593C24.641 7.52593 25.0707 7.69321 25.3824 8.02805C25.5397 8.20202 25.662 8.40605 25.7422 8.62848C25.8224 8.8509 25.859 9.08734 25.8499 9.32426C25.8595 9.56851 25.821 9.81224 25.7367 10.041C25.6525 10.2697 25.5242 10.4787 25.3595 10.6557C25.1933 10.8235 24.9959 10.9556 24.779 11.0441C24.5622 11.1326 24.3302 11.1758 24.0968 11.1711L24.048 11.1694ZM22.4742 23.7581V12.5941C22.4742 12.454 22.5348 12.3839 22.6567 12.3839H25.4622C25.5837 12.3839 25.6446 12.4539 25.6447 12.5941V23.7581C25.6447 23.9139 25.5839 23.9919 25.4622 23.9917H22.6795C22.5499 23.9917 22.4816 23.9218 22.4749 23.782L22.4742 23.7581Z" fill="#FF9A00"/>
</g>
<defs>
<clipPath id="clip0_169_17">
<rect width="34" height="34" fill="white"/>
</clipPath>
</defs>
</svg>
