<svg width="50" height="50" viewBox="0 0 34 34" fill="none" xmlns="http://www.w3.org/2000/svg">
<g clip-path="url(#clip0_65_95)">
<path d="M26.0312 0H7.96875C3.56773 0 0 3.56773 0 7.96875V26.0312C0 30.4323 3.56773 34 7.96875 34H26.0312C30.4323 34 34 30.4323 34 26.0312V7.96875C34 3.56773 30.4323 0 26.0312 0Z" fill="#F0DB4F"/>
<path d="M8.93983 28.4128L11.5416 26.8382C12.0437 27.7281 12.5003 28.4812 13.5956 28.4812C14.6455 28.4812 15.3074 28.0705 15.3074 26.4731V15.6093H18.5026V26.5182C18.5026 29.8275 16.5627 31.3339 13.7325 31.3339C11.1765 31.3339 9.69288 30.0101 8.9397 28.4125M20.2381 28.0704L22.8396 26.5642C23.5245 27.6826 24.4146 28.5042 25.9892 28.5042C27.3132 28.5042 28.1574 27.8422 28.1574 26.9293C28.1574 25.8338 27.2901 25.4458 25.8295 24.8069L25.0309 24.4644C22.7256 23.4832 21.1964 22.2507 21.1964 19.6489C21.1964 17.2524 23.0223 15.4265 25.8753 15.4265C27.9065 15.4265 29.3672 16.1341 30.4169 17.9828L27.9292 19.5804C27.3814 18.599 26.7882 18.2111 25.8753 18.2111C24.9395 18.2111 24.3461 18.8045 24.3461 19.5804C24.3461 20.5389 24.9395 20.9269 26.3088 21.5205L27.1075 21.8627C29.8234 23.0268 31.3526 24.2134 31.3526 26.8836C31.3526 29.7595 29.0932 31.3341 26.0578 31.3341C23.0909 31.3341 21.1737 29.9191 20.2381 28.0704Z" fill="#323330"/>
</g>
<defs>
<clipPath id="clip0_65_95">
<rect width="34" height="34" fill="white"/>
</clipPath>
</defs>
</svg>
