<svg width="50" height="50" viewBox="0 0 34 34" fill="none" xmlns="http://www.w3.org/2000/svg">
<g clip-path="url(#clip0_168_15)">
<path d="M25.2333 31.8801C25.1069 31.947 25.1175 31.9683 25.2386 31.9067C25.276 31.8914 25.3102 31.8694 25.3396 31.8418C25.3396 31.8195 25.3396 31.8195 25.2333 31.8801ZM25.4883 31.742C25.4278 31.7919 25.4277 31.7919 25.5 31.759C25.5267 31.7465 25.5511 31.7296 25.5723 31.709C25.5723 31.6803 25.5553 31.6867 25.4883 31.742ZM25.6541 31.6421C25.5935 31.692 25.5935 31.692 25.6658 31.6591C25.6926 31.6463 25.717 31.6291 25.738 31.6081C25.738 31.5815 25.721 31.5868 25.6541 31.6421ZM25.8219 31.5433C25.7614 31.5932 25.7614 31.5932 25.8315 31.5592C25.8708 31.538 25.9037 31.5157 25.9037 31.5093C25.9037 31.4827 25.8867 31.488 25.8219 31.5433ZM26.0483 31.3935C25.9324 31.471 25.8921 31.521 25.9983 31.4657C26.0695 31.4222 26.1906 31.3265 26.1694 31.3265C26.1237 31.3435 26.0854 31.3722 26.0472 31.3935H26.0483ZM15.8876 0.0114715C15.81 0.016784 15.5773 0.038034 15.3733 0.055034C10.5411 0.492784 6.02013 3.09378 3.15456 7.10047C1.57097 9.29799 0.541618 11.8455 0.154062 14.5263C0.017 15.4613 0 15.7375 0 17.0051C0 18.2716 0.017 18.5436 0.154062 19.4786C1.0795 25.8653 5.62275 31.2267 11.781 33.2135C12.8892 33.5673 14.0505 33.8117 15.3733 33.9615C15.8876 34.0168 18.1114 34.0168 18.6256 33.9615C20.9121 33.7065 22.8427 33.1423 24.7531 32.168C25.0463 32.0193 25.1016 31.98 25.0622 31.947C24.1303 30.7151 23.2063 29.4773 22.2902 28.2336L19.5734 24.5648L16.1702 19.5232C15.0382 17.8352 13.8945 16.155 12.7394 14.4827C12.7277 14.4827 12.7128 16.7235 12.7064 19.4563C12.6947 24.2428 12.6947 24.4373 12.6342 24.5478C12.5761 24.6813 12.4721 24.7895 12.3409 24.8527C12.2357 24.9027 12.1412 24.9133 11.6386 24.9133H11.0638L10.914 24.8198C10.8202 24.7596 10.7439 24.6756 10.693 24.5765L10.6208 24.4267L10.6261 17.7637L10.6378 11.1008L10.7429 10.968C10.8101 10.8863 10.8928 10.8188 10.9863 10.7693C11.1254 10.7023 11.1807 10.6917 11.7555 10.6917C12.4302 10.6917 12.5417 10.7183 12.7192 10.9127C14.0978 12.9632 15.4646 15.0217 16.8194 17.088C19.0283 20.437 22.0437 25.0068 23.5259 27.2487L26.2214 31.3276L26.3543 31.2394C27.6497 30.3785 28.8236 29.3475 29.8446 28.1741C31.9861 25.723 33.3757 22.7066 33.847 19.486C33.9841 18.551 34.0011 18.2737 34.0011 17.0072C34.0011 15.7397 33.9841 15.4687 33.847 14.5337C32.9216 8.14703 28.3783 2.78566 22.2201 0.797722C21.0691 0.4332 19.8845 0.185103 18.6841 0.057159C18.3621 0.0242215 16.1649 -0.015091 15.8886 0.0135965L15.8876 0.0114715ZM22.8438 10.2933C22.9228 10.3321 22.9933 10.3863 23.0511 10.4527C23.109 10.5191 23.153 10.5964 23.1806 10.68C23.2092 10.7693 23.2146 12.617 23.2092 16.7788L23.1976 22.7543L22.1467 21.1393L21.0896 19.5232V15.185C21.0896 12.3726 21.1013 10.7958 21.1161 10.7183C21.1681 10.5404 21.2874 10.3899 21.4487 10.2986C21.5804 10.2317 21.6314 10.2263 22.1574 10.2263C22.6493 10.2263 22.7332 10.2317 22.8438 10.2933Z" fill="black"/>
</g>
<defs>
<clipPath id="clip0_168_15">
<rect width="34" height="34" fill="white"/>
</clipPath>
</defs>
</svg>
