<svg width="300" height="300" viewBox="0 0 514 518" fill="none" xmlns="http://www.w3.org/2000/svg">
<g clip-path="url(#clip0_93_16)">
<path d="M112.407 205.635L99.6348 218.407C96.5228 221.519 96.5228 226.564 99.6348 229.676L112.407 242.448C115.519 245.56 120.564 245.56 123.676 242.448L136.449 229.676C139.56 226.564 139.56 221.519 136.449 218.407L123.676 205.635C120.564 202.523 115.519 202.523 112.407 205.635Z" fill="#F0DB4F"/>
<path d="M120.412 237.811L121.139 234.858C122.123 235.132 122.978 235.342 123.753 234.567C124.495 233.825 124.673 233.067 123.543 231.937L115.861 224.255L118.121 221.996L125.835 229.71C128.175 232.05 127.868 234.486 125.867 236.488C124.059 238.295 122.074 238.408 120.412 237.811M128.159 229.58L128.934 226.675C130.209 226.982 131.419 226.933 132.533 225.82C133.469 224.884 133.598 223.819 132.952 223.173C132.178 222.399 131.29 222.737 129.805 223.319L128.998 223.641C126.675 224.577 124.722 224.787 122.882 222.947C121.187 221.253 121.187 218.671 123.205 216.653C124.641 215.217 126.174 214.684 128.224 215.249L127.594 218.138C126.513 217.832 125.819 217.977 125.174 218.622C124.512 219.284 124.512 220.123 125.061 220.672C125.738 221.35 126.432 221.204 127.82 220.656L128.627 220.333C131.371 219.236 133.291 218.993 135.179 220.882C137.213 222.915 136.729 225.626 134.582 227.773C132.484 229.871 130.128 230.226 128.159 229.58Z" fill="#323330"/>
</g>
<g clip-path="url(#clip1_93_16)">
<path d="M357.793 149.679L348.762 165.321C346.561 169.133 347.867 174.006 351.679 176.207L367.321 185.238C371.133 187.439 376.006 186.133 378.207 182.321L387.238 166.679C389.439 162.867 388.133 157.994 384.321 155.793L368.679 146.762C364.867 144.561 359.994 145.867 357.793 149.679Z" fill="#CD6799"/>
<mask id="mask0_93_16" style="mask-type:luminance" maskUnits="userSpaceOnUse" x="352" y="149" width="32" height="34">
<path d="M352.733 172.521L366.014 149.518L383.257 159.472L369.975 182.476L352.733 172.521Z" fill="white"/>
</mask>
<g mask="url(#mask0_93_16)">
<path d="M374.072 158.448C373.613 159.252 373.404 160.061 373.352 160.809C372.805 160.778 372.303 160.774 372.004 160.652C371.657 160.508 371.43 160.444 371.073 160.171C370.716 159.897 370.297 159.353 370.252 159.333C370.208 159.313 369.984 159.245 369.713 159.704C369.442 160.164 369.304 160.616 369.399 160.733C369.494 160.849 369.72 161.097 369.972 161.321C370.346 161.643 371.358 163.353 371.864 164.289C371.468 164.268 371.122 164.247 370.89 164.153C370.543 164.008 370.316 163.944 369.959 163.671C369.602 163.397 369.183 162.853 369.138 162.833C369.094 162.813 368.87 162.745 368.599 163.205C368.328 163.664 368.19 164.116 368.285 164.233C368.38 164.349 368.637 164.565 368.858 164.821C369.08 165.078 370.935 167.644 371.412 168.311C371.605 168.581 371.792 168.855 371.973 169.134C371.973 169.134 371.983 169.145 371.997 169.17C372.054 169.257 372.109 169.345 372.163 169.434L372.168 169.436C372.245 169.565 372.311 169.693 372.291 169.726C372.277 169.751 371.948 169.623 371.583 169.306C370.81 168.636 369.688 167.456 369.64 167.434C369.615 167.419 369.423 167.208 369.107 167.474C368.796 167.731 368.93 167.965 368.913 167.994C368.896 168.024 368.955 168.086 368.955 168.086C368.955 168.086 367.646 166.843 367.033 167.905C366.65 168.569 366.848 169.904 367.241 170.735C367.224 171.413 367.208 172.09 367.193 172.768C367.188 173.096 367.179 173.432 367.171 173.746C367.145 173.754 367.114 173.758 367.087 173.765C364.972 174.257 362.63 176.074 360.845 174.909C360.195 174.483 358.564 173.234 358.903 167.702C359.202 163.16 361.309 160.625 362.661 160.756C364.592 160.942 366.158 164.785 364.46 168.676C363.81 170.16 362.851 170.58 362.543 170.649C362.221 170.721 362.192 170.743 362.193 170.839C362.188 170.992 362.42 171.026 362.554 171.047C362.902 171.103 363.666 170.944 364.352 170.327C364.959 169.781 366.023 168.218 366.401 165.799C366.822 163.091 365.44 159.987 363.152 159.343C360.835 158.683 358.227 161.657 357.522 165.488C357.102 167.765 356.977 170.426 357.504 172.695C358.131 175.391 359.394 176.49 360.056 176.721C362.408 177.536 365.47 175.413 367.164 174.834C367.164 174.913 367.162 174.984 367.16 175.045C367.113 175.796 366.991 178.693 367.902 179.958C368.932 181.393 370.354 181.239 370.767 180.834C372.048 179.574 372.19 177.602 371.433 176.062C370.676 174.522 369.014 173.696 368.059 173.654C368.047 173.653 368.035 173.654 368.024 173.656C368.023 173.454 368.02 173.246 368.019 173.043C368.015 172.671 368.02 172.298 368.032 171.925C368.34 172.294 368.746 172.668 369.388 173.106C370.142 173.625 371.353 173.893 372.001 173.702C372.286 173.615 372.419 173.394 372.501 173.252C372.788 172.756 372.504 172.296 372.16 171.767C371.739 171.12 371.203 170.447 371.203 170.447C371.203 170.447 372.88 171.869 373.413 170.945C373.607 170.609 373.367 170.017 373.232 169.737L373.236 169.739C373.236 169.739 373.228 169.724 373.208 169.69C373.173 169.625 373.152 169.585 373.152 169.585L373.143 169.58C372.986 169.31 372.627 168.699 372 167.738C371.193 166.5 370.087 165.117 370.087 165.117C370.087 165.117 370.465 165.268 371.144 165.43C371.542 165.526 372.037 165.531 372.495 165.572C372.607 165.815 372.663 165.96 372.663 165.96L372.67 165.958C372.75 166.15 372.837 166.357 372.913 166.574C373.195 167.347 373.505 168.255 373.642 168.434C373.805 168.646 373.973 168.715 374.196 168.62C374.359 168.551 374.497 168.34 374.613 168.11C374.821 167.682 374.888 167.334 374.907 167.155C374.956 166.886 374.985 166.555 374.945 166.208C374.872 165.567 374.555 165.02 373.915 164.684C373.563 164.498 373.154 164.412 372.75 164.364C372.716 164.288 372.679 164.216 372.644 164.14C372.017 162.832 371.196 161.625 371.196 161.625C371.196 161.625 371.574 161.776 372.253 161.938C372.595 162.024 373.014 162.036 373.412 162.064C373.568 163.045 373.96 163.82 374.287 164.204C374.899 164.91 375.362 164.903 375.667 164.559C375.807 164.404 375.868 164.104 375.895 163.873C375.955 163.594 375.985 163.242 375.945 162.866C375.872 162.225 375.66 161.526 375.02 161.189C374.727 161.037 374.402 160.95 374.068 160.898C374.161 160.195 374.452 159.389 375.1 158.52C376.489 156.657 377.964 156.982 378.445 157.361C378.926 157.74 378.97 158.324 378.978 158.514C378.986 158.703 378.989 158.767 379.059 158.79C379.161 158.827 379.196 158.757 379.247 158.63C379.312 158.449 379.429 157.335 378.485 156.74C377.287 155.964 375.26 156.362 374.072 158.448ZM370.368 176.869C370.707 177.949 370.447 179.031 369.986 179.296C369.491 179.582 368.521 178.798 368.227 177.542C368.047 176.777 367.983 175.889 367.963 175.313C367.96 175.182 367.959 174.991 367.953 174.758C367.953 174.719 367.955 174.697 367.955 174.697L367.95 174.56C369.214 174.892 370.011 175.733 370.368 176.869ZM369.872 170.144C370.302 170.7 371.463 172.014 371.214 172.262C371.001 172.475 369.82 172 368.947 171.02C368.509 170.527 368.083 169.771 367.96 169.403C367.765 168.809 367.861 168.333 368.08 168.331C368.365 168.333 369.602 169.797 369.872 170.144ZM374.08 167.259C374.074 167.385 374.055 167.497 374.005 167.524C373.972 167.544 373.946 167.434 373.946 167.434C373.946 167.434 373.697 166.624 373.567 166.286C373.49 166.09 373.399 165.858 373.293 165.607L373.347 165.638C373.99 166.009 374.063 166.88 374.08 167.259ZM375.153 163.78C375.062 163.823 374.901 163.713 374.514 163.171C374.362 162.96 374.144 162.542 374.028 161.977C374.186 162.013 374.333 162.058 374.453 162.133C375.261 162.605 375.228 163.359 375.153 163.78Z" fill="white"/>
</g>
</g>
<g clip-path="url(#clip2_93_16)">
<path d="M112.407 315.635L99.6348 328.407C96.5228 331.519 96.5228 336.564 99.6348 339.676L112.407 352.448C115.519 355.56 120.564 355.56 123.676 352.448L136.449 339.676C139.56 336.564 139.56 331.519 136.449 328.407L123.676 315.635C120.564 312.523 115.519 312.523 112.407 315.635Z" fill="#F4F2ED"/>
<path d="M108.677 324.812C103.908 329.58 106.274 331.35 106.274 331.35L108.421 333.487L112.972 328.937L113.615 329.58L107.257 335.938C107.257 335.938 103.86 338.643 108.671 343.454C113.482 348.265 115.975 345.431 115.975 345.431L117.564 343.842L115.332 341.609C115.332 341.609 112.583 339.032 115.289 336.325L119.802 331.813C119.802 331.813 122.379 329.318 119.887 326.826L115.768 322.707C115.768 322.707 113.659 319.829 108.677 324.812ZM107.608 328.761C107.716 328.654 107.843 328.568 107.984 328.51C108.124 328.452 108.275 328.422 108.427 328.422C108.579 328.422 108.729 328.452 108.87 328.51C109.01 328.568 109.138 328.654 109.245 328.761C109.353 328.869 109.438 328.996 109.497 329.137C109.555 329.277 109.585 329.428 109.585 329.58C109.585 329.732 109.555 329.883 109.497 330.023C109.438 330.164 109.353 330.291 109.245 330.399C109.138 330.506 109.01 330.592 108.87 330.65C108.729 330.708 108.579 330.738 108.427 330.738C108.275 330.738 108.124 330.708 107.984 330.65C107.843 330.592 107.716 330.506 107.608 330.399C107.501 330.291 107.415 330.164 107.357 330.023C107.299 329.883 107.269 329.732 107.269 329.58C107.269 329.428 107.299 329.277 107.357 329.137C107.415 328.996 107.501 328.869 107.608 328.761Z" fill="url(#paint0_linear_93_16)"/>
<path d="M127.497 343.361C132.265 338.593 129.9 336.823 129.9 336.823L127.752 334.686L123.202 339.236L122.559 338.593L128.916 332.236C128.916 332.236 132.313 329.531 127.502 324.719C122.691 319.908 120.199 322.742 120.199 322.742L118.609 324.331L120.842 326.564C120.842 326.564 123.59 329.141 120.884 331.848L116.371 336.361C116.371 336.361 113.795 338.855 116.286 341.347L120.406 345.466C120.406 345.466 122.514 348.344 127.497 343.361ZM128.565 339.412C128.458 339.519 128.33 339.605 128.19 339.663C128.049 339.721 127.899 339.751 127.747 339.751C127.595 339.751 127.444 339.721 127.304 339.663C127.163 339.605 127.035 339.519 126.928 339.412C126.82 339.304 126.735 339.177 126.677 339.036C126.618 338.896 126.588 338.745 126.588 338.593C126.588 338.441 126.618 338.291 126.677 338.15C126.735 338.01 126.82 337.882 126.928 337.775C127.035 337.667 127.163 337.582 127.304 337.523C127.444 337.465 127.595 337.435 127.747 337.435C127.899 337.435 128.049 337.465 128.19 337.523C128.33 337.582 128.458 337.667 128.565 337.775C128.673 337.882 128.758 338.01 128.817 338.15C128.875 338.291 128.905 338.441 128.905 338.593C128.905 338.745 128.875 338.896 128.816 339.036C128.758 339.177 128.673 339.304 128.565 339.412Z" fill="url(#paint1_linear_93_16)"/>
</g>
<g clip-path="url(#clip3_93_16)">
<path d="M207.793 409.992C207.717 410.114 207.736 410.127 207.81 410.013C207.835 409.981 207.854 409.945 207.866 409.906C207.854 409.887 207.854 409.887 207.793 409.992ZM207.944 409.745C207.917 409.819 207.917 409.819 207.963 409.754C207.98 409.73 207.993 409.703 208.001 409.675C207.986 409.65 207.975 409.664 207.944 409.745ZM208.038 409.576C208.011 409.649 208.011 409.649 208.057 409.585C208.073 409.56 208.086 409.533 208.094 409.504C208.08 409.481 208.068 409.495 208.038 409.576ZM208.134 409.406C208.106 409.48 208.106 409.48 208.15 409.415C208.174 409.377 208.191 409.341 208.188 409.336C208.175 409.313 208.162 409.326 208.134 409.406ZM208.255 409.163C208.194 409.288 208.184 409.352 208.248 409.251C208.288 409.178 208.345 409.034 208.326 409.045C208.295 409.082 208.277 409.126 208.254 409.164L208.255 409.163ZM183.765 387.066C183.7 387.11 183.509 387.244 183.341 387.361C179.375 390.156 176.76 394.669 176.282 399.572C176.009 402.267 176.392 404.988 177.396 407.503C177.745 408.381 177.869 408.629 178.502 409.727C179.136 410.824 179.286 411.051 179.873 411.792C183.867 416.86 190.483 419.232 196.809 417.873C197.946 417.626 199.074 417.257 200.294 416.725C200.767 416.516 202.693 415.404 203.111 415.099C204.964 413.735 206.353 412.281 207.521 410.482C207.7 410.206 207.728 410.145 207.678 410.136C206.255 409.535 204.836 408.925 203.421 408.306L199.233 406.487L193.765 403.823C191.941 402.927 190.11 402.043 188.274 401.173C188.264 401.179 189.371 403.127 190.732 405.496C193.115 409.648 193.212 409.816 193.215 409.942C193.232 410.087 193.196 410.232 193.114 410.353C193.048 410.448 192.971 410.505 192.536 410.756L192.038 411.044L191.862 411.038C191.75 411.032 191.642 410.998 191.549 410.937L191.411 410.844L188.084 405.071L184.763 399.295L184.788 399.127C184.805 399.023 184.843 398.923 184.899 398.833C184.986 398.706 185.028 398.669 185.526 398.382C186.111 398.044 186.22 398.011 186.471 398.091C188.691 399.178 190.903 400.277 193.11 401.389C196.697 403.185 201.594 405.635 203.998 406.835L208.372 409.02L208.443 408.877C209.134 407.484 209.636 406.004 209.933 404.477C210.562 401.284 210.257 397.977 209.055 394.952C208.706 394.074 208.583 393.825 207.949 392.728C207.315 391.63 207.165 391.404 206.579 390.663C202.584 385.595 195.969 383.223 189.642 384.581C188.463 384.841 187.313 385.218 186.209 385.707C185.914 385.84 183.992 386.904 183.767 387.067L183.765 387.066ZM194.93 392.492C195.018 392.486 195.106 392.498 195.189 392.527C195.272 392.555 195.349 392.6 195.415 392.659C195.484 392.722 196.413 394.319 198.489 397.926L201.467 403.107L199.749 402.234L198.026 401.363L195.856 397.606C194.45 395.17 193.672 393.799 193.646 393.724C193.602 393.544 193.63 393.354 193.724 393.195C193.805 393.071 193.846 393.041 194.302 392.778C194.728 392.532 194.803 392.494 194.93 392.492Z" fill="black"/>
</g>
<circle cx="388" cy="407" r="20" fill="#C0B33B"/>
<circle cx="141.5" cy="95.5" r="12.5" fill="#C0B33B"/>
<circle cx="354" cy="83" r="25" fill="#C0B33B"/>
<circle cx="53" cy="217" r="20" fill="#C0B33B"/>
<circle cx="73" cy="154" r="10" fill="#C0B33B"/>
<circle cx="437" cy="358" r="10" fill="#C0B33B"/>
<circle cx="448" cy="217" r="20" fill="#C0B33B"/>
<circle cx="263" cy="459" r="20" fill="#C0B33B"/>
<circle cx="68" cy="338" r="15" fill="#C0B33B"/>
<circle cx="121" cy="412" r="10" fill="#C0B33B"/>
<line x1="259.5" y1="341.5" x2="259.5" y2="396.5" stroke="black" stroke-width="5" stroke-linecap="round" stroke-dasharray="10 10"/>
<line x1="434.5" y1="261.5" x2="359.5" y2="261.5" stroke="black" stroke-width="5" stroke-linecap="round" stroke-dasharray="20 20"/>
<line x1="129.749" y1="147.713" x2="168.64" y2="186.604" stroke="black" stroke-width="5" stroke-linecap="round" stroke-dasharray="15 15"/>
<g clip-path="url(#clip4_93_16)">
<path d="M306.324 384.303L294.303 396.324C291.374 399.253 291.374 404.002 294.303 406.931L306.324 418.952C309.253 421.88 314.002 421.88 316.931 418.952L328.952 406.931C331.88 404.002 331.88 399.253 328.952 396.324L316.931 384.303C314.002 381.374 309.253 381.374 306.324 384.303Z" fill="#F4F2ED"/>
<mask id="mask1_93_16" style="mask-type:luminance" maskUnits="userSpaceOnUse" x="296" y="386" width="31" height="31">
<path d="M296.867 398.711L308.654 386.923L326.332 404.601L314.544 416.388L296.867 398.711Z" fill="white"/>
</mask>
<g mask="url(#mask1_93_16)">
<path d="M317.492 413.441C319.118 411.815 319.118 409.175 317.492 407.548L314.545 404.602L311.599 407.548C309.973 409.175 309.973 411.815 311.599 413.441C313.226 415.067 315.865 415.067 317.492 413.441Z" fill="#0ACF83"/>
<path d="M305.707 407.548C304.08 405.922 304.08 403.282 305.707 401.656L308.653 398.709L314.545 404.602L311.599 407.548C309.973 409.175 307.333 409.175 305.707 407.548Z" fill="#A259FF"/>
<path d="M299.814 401.656C298.188 400.029 298.188 397.389 299.814 395.763L302.76 392.817L308.653 398.709L305.707 401.656C304.08 403.282 301.44 403.282 299.814 401.656Z" fill="#F24E1E"/>
<path d="M302.76 392.817L305.707 389.871C307.333 388.244 309.973 388.244 311.599 389.871C313.225 391.497 313.225 394.137 311.599 395.763L308.653 398.709L302.76 392.817Z" fill="#FF7262"/>
<path d="M317.492 395.763C319.118 397.389 319.118 400.029 317.492 401.656C315.865 403.282 313.225 403.282 311.599 401.656C309.973 400.029 309.973 397.39 311.599 395.763C313.225 394.137 315.865 394.137 317.492 395.763Z" fill="#1ABCFE"/>
</g>
</g>
<g clip-path="url(#clip5_93_16)">
<path d="M370.178 304.888L358.822 324.557C357.264 327.256 358.241 330.739 361.006 332.335L380.392 343.528C383.157 345.124 386.661 344.229 388.22 341.529L399.575 321.861C401.134 319.161 400.157 315.679 397.392 314.083L378.006 302.89C375.241 301.294 371.736 302.189 370.178 304.888Z" fill="#330000"/>
<path d="M381.88 325.362L379.246 329.925L381.663 332.558C381.709 332.602 381.739 332.66 381.748 332.723C381.756 332.785 381.742 332.848 381.708 332.9L380.374 335.211C380.298 335.343 380.197 335.346 380.071 335.221L370.702 324.544C370.603 324.435 370.488 324.315 370.355 324.186C370.115 323.979 369.857 323.794 369.582 323.634C369.561 323.626 369.543 323.613 369.528 323.596C369.513 323.58 369.502 323.56 369.496 323.539C369.49 323.517 369.489 323.495 369.493 323.473C369.497 323.452 369.507 323.432 369.52 323.414L371.333 320.274C371.387 320.182 371.451 320.148 371.526 320.174L387.06 323.164C387.217 323.202 387.262 323.281 387.193 323.399L385.711 325.967C385.69 326.014 385.653 326.052 385.606 326.073C385.559 326.095 385.506 326.098 385.455 326.083L381.88 325.362ZM377.108 327.742L378.91 324.621L378.734 324.579L378.454 324.513L378.257 324.467L377.947 324.397L377.293 324.25L376.714 324.118L375.205 323.774C374.83 323.688 374.457 323.598 374.084 323.503L373.782 323.425L373.425 323.332L372.874 323.185L372.77 323.157L372.759 323.177C373.187 323.556 373.598 323.954 373.991 324.369L374.787 325.22L375.227 325.689L375.673 326.163C375.754 326.249 375.833 326.334 375.912 326.418L376.143 326.669L376.369 326.915L376.588 327.157L376.801 327.394C376.871 327.473 376.939 327.551 377.007 327.627L377.108 327.742ZM377.697 314.203C377.589 314.41 377.437 314.59 377.253 314.733C377.068 314.876 376.854 314.978 376.625 315.033C376.389 315.083 376.145 315.087 375.906 315.044C375.667 315.001 375.438 314.912 375.232 314.782C375.019 314.669 374.832 314.513 374.683 314.325C374.534 314.136 374.426 313.92 374.366 313.69C374.251 313.245 374.313 312.777 374.54 312.384L374.564 312.342C374.838 311.868 375.198 311.58 375.644 311.477C375.873 311.428 376.111 311.424 376.343 311.466C376.576 311.507 376.799 311.594 377 311.72C377.216 311.834 377.408 311.989 377.564 312.177C377.72 312.364 377.837 312.58 377.908 312.811C377.97 313.039 377.986 313.276 377.954 313.508C377.922 313.74 377.843 313.962 377.723 314.162L377.697 314.203ZM387.812 321.861L378.144 316.279C378.022 316.209 377.992 316.121 378.053 316.016L379.456 313.586C379.516 313.481 379.608 313.463 379.729 313.533L389.397 319.115C389.532 319.193 389.569 319.285 389.508 319.39L388.117 321.8C388.052 321.912 387.958 321.936 387.833 321.872L387.812 321.861Z" fill="#FF9A00"/>
</g>
<path d="M242.5 87.3707C245.218 87.3707 247.422 85.1671 247.422 82.4489C247.422 79.7306 245.218 77.527 242.5 77.527C239.782 77.527 237.578 79.7306 237.578 82.4489C237.578 85.1671 239.782 87.3707 242.5 87.3707Z" fill="#00D8FF"/>
<path d="M242.5 93.7336C236.584 93.8767 230.683 93.0793 225.017 91.3711C222.4 90.5415 219.959 89.2345 217.818 87.5163C217.001 86.9294 216.32 86.1725 215.823 85.2978C215.326 84.4231 215.024 83.4512 214.938 82.4488C214.938 79.1944 218.513 76.005 224.502 73.9182C230.319 72.069 236.397 71.1728 242.5 71.2643C248.522 71.1802 254.518 72.0602 260.262 73.8709C262.783 74.6745 265.141 75.9183 267.227 77.5446C268.031 78.1042 268.701 78.8336 269.191 79.6811C269.681 80.5286 269.978 81.4735 270.062 82.4488C270.062 85.8311 266.066 89.2587 259.628 91.3889C254.072 93.0414 248.296 93.8321 242.5 93.7336ZM242.5 73.6189C236.661 73.5409 230.847 74.3928 225.275 76.1429C219.763 78.0663 217.292 80.6966 217.292 82.4429C217.292 84.2699 219.948 87.1423 225.779 89.1366C231.2 90.7625 236.843 91.5194 242.5 91.379C248.045 91.4782 253.572 90.7279 258.89 89.1543C264.944 87.1482 267.7 84.2718 267.7 82.4488C267.601 81.8231 267.373 81.2249 267.03 80.6919C266.688 80.1589 266.239 79.7026 265.712 79.3519C263.845 77.9091 261.738 76.8068 259.488 76.0956C253.994 74.3705 248.259 73.5344 242.5 73.6189Z" fill="#00D8FF"/>
<path d="M231.317 106.997C230.399 107.018 229.491 106.795 228.687 106.351C225.868 104.725 224.891 100.036 226.075 93.8046C227.379 87.8414 229.64 82.1285 232.768 76.8871C235.703 71.6288 239.461 66.8739 243.898 62.8027C245.853 61.0204 248.109 59.5986 250.56 58.6033C251.447 58.1878 252.414 57.9724 253.393 57.9724C254.372 57.9724 255.339 58.1878 256.226 58.6033C259.158 60.2925 260.128 65.4664 258.76 72.107C257.415 77.7466 255.213 83.1466 252.231 88.1188C249.4 93.3151 245.761 98.0286 241.451 102.083C239.424 103.935 237.073 105.396 234.515 106.393C233.491 106.773 232.41 106.977 231.317 106.997ZM234.808 78.0566C231.824 83.0755 229.657 88.5376 228.39 94.2377C227.301 99.9766 228.347 103.428 229.866 104.306C231.441 105.217 235.265 104.353 239.907 100.298C244.022 96.4131 247.495 91.9012 250.198 86.9297C253.054 82.1762 255.166 77.0134 256.46 71.6207C257.748 65.3699 256.636 61.5427 255.057 60.6331C254.465 60.4064 253.832 60.3049 253.199 60.335C252.566 60.3652 251.947 60.5264 251.379 60.8083C249.197 61.7087 247.191 62.987 245.453 64.5844C241.214 68.4841 237.625 73.0361 234.822 78.0684L234.808 78.0566Z" fill="#00D8FF"/>
<path d="M253.677 107.023C251.009 107.023 247.621 105.408 244.093 102.375C239.578 98.2663 235.757 93.4549 232.778 88.1267C229.689 82.9575 227.446 77.3272 226.136 71.4494C225.567 68.8634 225.462 66.1972 225.825 63.5744C225.909 62.6015 226.205 61.6588 226.693 60.8128C227.18 59.9668 227.848 59.2381 228.648 58.6781C231.575 56.9831 236.543 58.7254 241.612 63.226C245.826 67.2071 249.405 71.8111 252.224 76.8773C255.311 81.9258 257.577 87.4328 258.937 93.1923C259.53 95.8732 259.621 98.6406 259.207 101.355C259.108 102.356 258.794 103.323 258.287 104.192C257.779 105.06 257.089 105.808 256.266 106.385C255.474 106.823 254.581 107.044 253.677 107.023ZM234.816 86.9415C237.673 92.0336 241.323 96.6383 245.628 100.583C250.056 104.393 253.568 105.212 255.078 104.324C256.653 103.408 257.815 99.6715 256.618 93.6254C255.306 88.1266 253.133 82.87 250.178 78.0506C247.488 73.2019 244.073 68.7933 240.049 64.9781C235.277 60.7414 231.406 59.7944 229.829 60.7079C229.338 61.1073 228.934 61.6043 228.645 62.1675C228.355 62.7307 228.185 63.3479 228.146 63.98C227.833 66.319 227.935 68.695 228.447 70.9986C229.708 76.6196 231.858 82.0031 234.818 86.9455L234.816 86.9415Z" fill="#00D8FF"/>
<defs>
<linearGradient id="paint0_linear_93_16" x1="102.839" y1="334.011" x2="121.362" y2="333.918" gradientUnits="userSpaceOnUse">
<stop stop-color="#387EB8"/>
<stop offset="1" stop-color="#366994"/>
</linearGradient>
<linearGradient id="paint1_linear_93_16" x1="114.469" y1="334.215" x2="133.914" y2="333.669" gradientUnits="userSpaceOnUse">
<stop stop-color="#FFE052"/>
<stop offset="1" stop-color="#FFC331"/>
</linearGradient>
<clipPath id="clip0_93_16">
<rect width="34" height="34" fill="white" transform="translate(94 224.042) rotate(-45)"/>
</clipPath>
<clipPath id="clip1_93_16">
<rect width="34" height="34" fill="white" transform="translate(344.778 172.222) rotate(-60)"/>
</clipPath>
<clipPath id="clip2_93_16">
<rect width="34" height="34" fill="white" transform="translate(94 334.042) rotate(-45)"/>
</clipPath>
<clipPath id="clip3_93_16">
<rect width="34" height="34" fill="white" transform="translate(170 395) rotate(-30)"/>
</clipPath>
<clipPath id="clip4_93_16">
<rect width="32" height="32" fill="white" transform="translate(289 401.627) rotate(-45)"/>
</clipPath>
<clipPath id="clip5_93_16">
<rect width="34" height="34" fill="white" transform="translate(356 329.445) rotate(-60)"/>
</clipPath>
</defs>
</svg>
