<svg width="50" height="50" viewBox="0 0 61 61" fill="none" xmlns="http://www.w3.org/2000/svg">
<g clip-path="url(#clip0_65_66)">
<path d="M30.2417 0.017334C14.7934 0.017334 15.758 6.74288 15.758 6.74288L15.7752 13.7108H30.5172V15.8027H9.91988C9.91988 15.8027 0.0345459 14.6772 0.0345459 30.3255C0.0345459 45.9743 8.66271 45.4193 8.66271 45.4193H13.812V38.1576C13.812 38.1576 13.5344 29.4956 22.3024 29.4956H36.9238C36.9238 29.4956 45.1386 29.6289 45.1386 21.5252V8.12627C45.1386 8.12627 46.3862 0.017334 30.2417 0.017334ZM22.113 4.70309C22.4613 4.70278 22.8063 4.77143 23.1282 4.90512C23.4502 5.03881 23.7426 5.23491 23.989 5.48221C24.2353 5.7295 24.4306 6.02314 24.5638 6.34631C24.697 6.66947 24.7654 7.01583 24.765 7.36556C24.7654 7.71529 24.697 8.06165 24.5638 8.38482C24.4306 8.70799 24.2353 9.00162 23.989 9.24892C23.7426 9.49621 23.4502 9.69232 23.1282 9.826C22.8063 9.9597 22.4613 10.0283 22.113 10.028C21.7646 10.0283 21.4196 9.9597 21.0977 9.826C20.7758 9.69232 20.4833 9.49621 20.237 9.24892C19.9906 9.00162 19.7953 8.70799 19.6621 8.38482C19.529 8.06165 19.4606 7.71529 19.4609 7.36556C19.4606 7.01583 19.529 6.66947 19.6621 6.34631C19.7953 6.02314 19.9906 5.7295 20.237 5.48221C20.4833 5.23491 20.7758 5.03881 21.0977 4.90512C21.4196 4.77143 21.7646 4.70278 22.113 4.70309Z" fill="url(#paint0_linear_65_66)"/>
<path d="M30.6804 60.7909C46.1287 60.7909 45.1641 54.0653 45.1641 54.0653L45.147 47.0977H30.4047V45.0057H51.002C51.002 45.0057 60.8874 46.1312 60.8874 30.4825C60.8874 14.8339 52.2592 15.3889 52.2592 15.3889H47.1099V22.6503C47.1099 22.6503 47.3875 31.3123 38.6195 31.3123H23.9981C23.9981 31.3123 15.7833 31.1791 15.7833 39.283V52.6822C15.7833 52.6822 14.5359 60.7909 30.6802 60.7909H30.6804ZM38.8092 56.1056C38.4608 56.1059 38.1158 56.0372 37.7939 55.9035C37.472 55.7699 37.1795 55.5737 36.9332 55.3265C36.6868 55.0792 36.4915 54.7855 36.3583 54.4624C36.2252 54.1392 36.1568 53.7928 36.1571 53.4431C36.1568 53.0934 36.2251 52.747 36.3583 52.4238C36.4914 52.1006 36.6868 51.8069 36.9331 51.5596C37.1794 51.3123 37.4719 51.1161 37.7938 50.9824C38.1158 50.8487 38.4608 50.7801 38.8092 50.7804C39.1575 50.7801 39.5025 50.8487 39.8244 50.9824C40.1463 51.1161 40.4388 51.3122 40.6852 51.5595C40.9315 51.8068 41.1268 52.1004 41.26 52.4236C41.3932 52.7468 41.4616 53.0931 41.4612 53.4429C41.4616 53.7926 41.3932 54.139 41.26 54.4621C41.1268 54.7853 40.9315 55.0789 40.6852 55.3262C40.4388 55.5735 40.1463 55.7696 39.8244 55.9033C39.5025 56.037 39.1575 56.1059 38.8092 56.1056Z" fill="url(#paint1_linear_65_66)"/>
</g>
<defs>
<linearGradient id="paint0_linear_65_66" x1="584.827" y1="546.641" x2="3612.19" y2="3532.09" gradientUnits="userSpaceOnUse">
<stop stop-color="#387EB8"/>
<stop offset="1" stop-color="#366994"/>
</linearGradient>
<linearGradient id="paint1_linear_65_66" x1="878.938" y1="949.763" x2="4129.39" y2="4010.52" gradientUnits="userSpaceOnUse">
<stop stop-color="#FFE052"/>
<stop offset="1" stop-color="#FFC331"/>
</linearGradient>
<clipPath id="clip0_65_66">
<rect width="61" height="61" fill="white"/>
</clipPath>
</defs>
</svg>
