<svg width="50" height="50" viewBox="0 0 34 34" fill="none" xmlns="http://www.w3.org/2000/svg">
<g clip-path="url(#clip0_65_87)">
<path d="M26.0312 0H7.96875C3.56773 0 0 3.56773 0 7.96875V26.0312C0 30.4323 3.56773 34 7.96875 34H26.0312C30.4323 34 34 30.4323 34 26.0312V7.96875C34 3.56773 30.4323 0 26.0312 0Z" fill="#CD6799"/>
<mask id="mask0_65_87" style="mask-type:luminance" maskUnits="userSpaceOnUse" x="3" y="7" width="28" height="20">
<path d="M3.71875 7.03906H30.2812V26.9489H3.71875V7.03906Z" fill="white"/>
</mask>
<g mask="url(#mask0_65_87)">
<path d="M26.5767 18.4824C25.6505 18.4872 24.8456 18.7103 24.1716 19.04C23.9243 18.5503 23.677 18.1139 23.6333 17.7938C23.5849 17.4205 23.5267 17.1925 23.5849 16.7464C23.643 16.3003 23.9049 15.6652 23.9 15.6167C23.8952 15.5681 23.8418 15.3403 23.3085 15.3354C22.7751 15.3307 22.3145 15.4373 22.2611 15.5779C22.2077 15.7185 22.106 16.0385 22.0381 16.3683C21.9459 16.8532 20.9712 18.5843 20.4137 19.491C20.2343 19.1371 20.0791 18.8267 20.0451 18.5794C19.9967 18.206 19.9385 17.9781 19.9967 17.532C20.0548 17.0859 20.3167 16.4507 20.3118 16.4022C20.307 16.3537 20.2536 16.1258 19.7203 16.121C19.1869 16.1161 18.7262 16.2228 18.6729 16.3634C18.6195 16.504 18.5613 16.8338 18.4498 17.1538C18.3384 17.4738 17.0437 20.3638 16.7042 21.1105C16.5671 21.4127 16.4232 21.7118 16.2727 22.0075C16.2727 22.0075 16.2678 22.0221 16.2533 22.0463C16.206 22.1391 16.1575 22.2312 16.1078 22.3227V22.3276C16.0351 22.4586 15.9574 22.5797 15.9186 22.5797C15.8896 22.5797 15.8363 22.2307 15.9283 21.7555C16.1224 20.7517 16.583 19.1903 16.5782 19.1371C16.5782 19.108 16.6654 18.8364 16.2775 18.6957C15.8993 18.5551 15.7635 18.7879 15.7295 18.7879C15.6957 18.7879 15.6713 18.8704 15.6713 18.8704C15.6713 18.8704 16.0933 17.115 14.8665 17.115C14.1003 17.115 13.0433 17.9538 12.5197 18.7103C11.9243 19.0343 11.3295 19.3591 10.7351 19.6849C10.4492 19.8449 10.1534 20.005 9.87687 20.1553C9.85748 20.1359 9.83809 20.1116 9.8187 20.0922C8.33492 18.5066 5.59048 17.3866 5.70683 15.2579C5.75052 14.482 6.01721 12.4454 10.9776 9.97246C15.0604 7.96022 18.3093 8.51777 18.8717 9.75425C19.6766 11.5193 17.131 14.7971 12.9124 15.2723C11.3025 15.4518 10.4589 14.8311 10.2456 14.5985C10.0224 14.3559 9.98843 14.3415 9.90596 14.3899C9.77022 14.4626 9.85748 14.6808 9.90596 14.8068C10.0321 15.1366 10.5509 15.7185 11.4285 16.0045C12.2044 16.2568 14.0906 16.3974 16.3745 15.5149C18.9299 14.5257 20.9277 11.7762 20.3409 9.47309C19.7543 7.13585 15.8751 6.36488 12.2044 7.66923C10.0223 8.44512 7.65611 9.667 5.95412 11.2574C3.93205 13.1487 3.61211 14.7924 3.74306 15.4809C4.21335 17.9247 7.58333 19.5152 8.93138 20.6935C8.86351 20.7323 8.80043 20.7663 8.74717 20.7954C8.07314 21.1299 5.50322 22.473 4.86307 23.8939C4.13579 25.5037 4.97954 26.6577 5.53709 26.8128C7.26817 27.2929 9.04772 26.4298 10.003 25.0042C10.9582 23.5786 10.8419 21.7264 10.4006 20.8778C10.3958 20.8671 10.3893 20.8572 10.3812 20.8487C10.5558 20.7469 10.7351 20.6402 10.9098 20.5384C11.2306 20.3487 11.5556 20.166 11.8843 19.9904C11.7195 20.4414 11.5983 20.9796 11.5401 21.7555C11.4674 22.6671 11.8408 23.8502 12.3305 24.3157C12.5487 24.5193 12.8057 24.5242 12.9706 24.5242C13.5428 24.5242 13.7998 24.049 14.0858 23.4865C14.4349 22.7979 14.7502 21.9978 14.7502 21.9978C14.7502 21.9978 14.3573 24.1606 15.4241 24.1606C15.812 24.1606 16.2047 23.6563 16.3794 23.3993V23.4041C16.3794 23.4041 16.3891 23.3896 16.4085 23.3556C16.4472 23.2925 16.4714 23.2537 16.4714 23.2537V23.244C16.6267 22.9725 16.9757 22.3567 17.4946 21.3335C18.1637 20.0147 18.8086 18.3661 18.8086 18.3661C18.8086 18.3661 18.8668 18.7685 19.0656 19.4376C19.182 19.8305 19.4245 20.262 19.6184 20.679C19.4633 20.8972 19.3663 21.0183 19.3663 21.0183L19.3711 21.0233C19.2451 21.1881 19.1093 21.3675 18.959 21.542C18.4304 22.1725 17.8001 22.895 17.7128 23.1035C17.6109 23.3508 17.6352 23.5301 17.8292 23.6757C17.9698 23.7823 18.2219 23.7968 18.4789 23.7823C18.9541 23.7483 19.2888 23.632 19.4536 23.5592C19.7106 23.4671 20.0113 23.3265 20.2924 23.118C20.8113 22.7349 21.1265 22.187 21.0974 21.4645C21.0828 21.0668 20.9518 20.6693 20.7919 20.2958C20.8404 20.228 20.884 20.1601 20.9324 20.0922C21.752 18.8945 22.3871 17.5805 22.3871 17.5805C22.3871 17.5805 22.4453 17.9829 22.6441 18.6522C22.7411 18.9915 22.9399 19.3601 23.1146 19.7189C22.3436 20.3445 21.8684 21.0717 21.6986 21.5469C21.3932 22.4295 21.6308 22.827 22.0817 22.9192C22.2854 22.9629 22.5763 22.8659 22.7897 22.7737C23.0612 22.6865 23.3812 22.5361 23.6867 22.313C24.2055 21.93 24.705 21.3966 24.6759 20.6741C24.6613 20.3445 24.574 20.0195 24.4528 19.7043C25.1074 19.4328 25.9512 19.2825 27.0276 19.4085C29.3358 19.6801 29.7916 21.1202 29.7042 21.7264C29.6169 22.3324 29.132 22.6622 28.972 22.764C28.8121 22.8659 28.7587 22.8998 28.7733 22.9725C28.7927 23.0792 28.8703 23.0743 29.006 23.0549C29.1951 23.021 30.2182 22.5652 30.2619 21.45C30.3346 20.0244 28.9769 18.4678 26.5767 18.4824ZM8.77134 24.4854C8.00528 25.3193 6.93853 25.6346 6.4778 25.368C5.98321 25.0817 6.17711 23.8502 7.11796 22.9676C7.68998 22.4295 8.42709 21.93 8.91677 21.6245C9.02833 21.5566 9.19315 21.4597 9.39197 21.3384C9.42597 21.319 9.44536 21.3093 9.44536 21.3093L9.56171 21.2366C9.90596 22.4973 9.57618 23.6078 8.77134 24.4854ZM14.3476 20.6935C14.0809 21.3433 13.5234 23.0064 13.1839 22.9144C12.893 22.8367 12.7136 21.576 13.1257 20.3298C13.3342 19.7043 13.7754 18.9576 14.0324 18.6666C14.4495 18.2011 14.9101 18.046 15.0216 18.2351C15.1623 18.4824 14.5126 20.2862 14.3476 20.6935ZM18.9493 22.895C18.8377 22.9532 18.7311 22.9919 18.6826 22.9629C18.6486 22.9435 18.7311 22.8659 18.7311 22.8659C18.7311 22.8659 19.3082 22.2451 19.5361 21.964C19.6669 21.799 19.8221 21.6051 19.987 21.3869V21.45C19.987 22.1919 19.2694 22.6913 18.9493 22.895ZM22.4987 22.0851C22.4162 22.0269 22.4308 21.833 22.7072 21.2269C22.8139 20.9893 23.0661 20.5918 23.4976 20.2086C23.5461 20.3638 23.5801 20.5141 23.5752 20.6547C23.5704 21.5906 22.9011 21.9397 22.4987 22.0851Z" fill="white"/>
</g>
</g>
<defs>
<clipPath id="clip0_65_87">
<rect width="34" height="34" fill="white"/>
</clipPath>
</defs>
</svg>
