<svg width="50" height="50" viewBox="0 0 35 35" fill="none" xmlns="http://www.w3.org/2000/svg">
<g clip-path="url(#clip0_65_19)">
<path d="M26.7969 0H8.20312C3.67266 0 0 3.67266 0 8.20312V26.7969C0 31.3273 3.67266 35 8.20312 35H26.7969C31.3273 35 35 31.3273 35 26.7969V8.20312C35 3.67266 31.3273 0 26.7969 0Z" fill="#242938"/>
<mask id="mask0_65_19" style="mask-type:luminance" maskUnits="userSpaceOnUse" x="8" y="3" width="19" height="29">
<path d="M8.33984 3.82812H26.5727V31.1719H8.33984V3.82812Z" fill="white"/>
</mask>
<g mask="url(#mask0_65_19)">
<path d="M12.8991 31.1718C15.4147 31.1718 17.4563 29.1301 17.4563 26.6145V22.0571H12.8991C10.3834 22.0571 8.34167 24.0989 8.34167 26.6145C8.34167 29.1301 10.3834 31.1718 12.8991 31.1718Z" fill="#0ACF83"/>
<path d="M8.34167 17.5001C8.34167 14.9845 10.3834 12.9429 12.8991 12.9429H17.4563V22.0574H12.8991C10.3834 22.0574 8.34167 20.0157 8.34167 17.5001Z" fill="#A259FF"/>
<path d="M8.3418 8.38537C8.3418 5.86975 10.3836 3.82812 12.8992 3.82812H17.4564V12.9428H12.8992C10.3836 12.9428 8.3418 10.901 8.3418 8.38537Z" fill="#F24E1E"/>
<path d="M17.4563 3.82812H22.0135C24.5292 3.82812 26.5709 5.86975 26.5709 8.38537C26.5709 10.901 24.5292 12.9428 22.0135 12.9428H17.4563V3.82812Z" fill="#FF7262"/>
<path d="M26.5709 17.5001C26.5709 20.0157 24.5292 22.0574 22.0135 22.0574C19.4979 22.0574 17.4563 20.0157 17.4563 17.5001C17.4563 14.9845 19.4979 12.9429 22.0135 12.9429C24.5292 12.9429 26.5709 14.9845 26.5709 17.5001Z" fill="#1ABCFE"/>
</g>
</g>
<defs>
<clipPath id="clip0_65_19">
<rect width="35" height="35" fill="white"/>
</clipPath>
</defs>
</svg>
